<svg xmlns="http://www.w3.org/2000/svg" width="27" height="26" viewBox="0 0 27 26"><defs><clipPath id="bqt4a"><path fill="#fff" d="M2 2.897C2 2.403 2.383 2 2.85 2h3.078c.382 0 .723.269.822.657L10.224 15.9h9.471l3.148-7.622H12.351c-.468 0-.851-.404-.851-.897s.383-.896.85-.896h11.797c.284 0 .553.15.71.403a.95.95 0 0 1 .07.852l-3.885 9.416c-.142.329-.44.538-.78.538H9.586a.859.859 0 0 1-.823-.658L5.29 3.793H2.851C2.383 3.793 2 3.39 2 2.897zm4.85 19.07c0-1.12.864-2.032 1.927-2.032 1.064 0 1.929.911 1.929 2.032S9.84 24 8.777 24c-1.063 0-1.928-.912-1.928-2.033zm12.065.135c-.07-1.106.724-2.093 1.787-2.167 1.063-.075 1.985.777 2.056 1.883.028.553-.128 1.076-.468 1.48-.34.418-.808.657-1.319.702h-.141c-1.007 0-1.844-.837-1.915-1.898z"/></clipPath></defs><g><g><path fill="#fff" d="M2 2.897C2 2.403 2.383 2 2.85 2h3.078c.382 0 .723.269.822.657L10.224 15.9h9.471l3.148-7.622H12.351c-.468 0-.851-.404-.851-.897s.383-.896.85-.896h11.797c.284 0 .553.15.71.403a.95.95 0 0 1 .07.852l-3.885 9.416c-.142.329-.44.538-.78.538H9.586a.859.859 0 0 1-.823-.658L5.29 3.793H2.851C2.383 3.793 2 3.39 2 2.897zm4.85 19.07c0-1.12.864-2.032 1.927-2.032 1.064 0 1.929.911 1.929 2.032S9.84 24 8.777 24c-1.063 0-1.928-.912-1.928-2.033zm12.065.135c-.07-1.106.724-2.093 1.787-2.167 1.063-.075 1.985.777 2.056 1.883.028.553-.128 1.076-.468 1.48-.34.418-.808.657-1.319.702h-.141c-1.007 0-1.844-.837-1.915-1.898z"/><path fill="none" stroke="#fff" stroke-linecap="round" stroke-linejoin="round" stroke-miterlimit="20" stroke-width="4" d="M2 2.897C2 2.403 2.383 2 2.85 2h3.078c.382 0 .723.269.822.657L10.224 15.9h9.471l3.148-7.622H12.351c-.468 0-.851-.404-.851-.897s.383-.896.85-.896h11.797c.284 0 .553.15.71.403a.95.95 0 0 1 .07.852l-3.885 9.416c-.142.329-.44.538-.78.538H9.586a.859.859 0 0 1-.823-.658L5.29 3.793H2.851C2.383 3.793 2 3.39 2 2.897zm4.85 19.07c0-1.12.864-2.032 1.927-2.032 1.064 0 1.929.911 1.929 2.032S9.84 24 8.777 24c-1.063 0-1.928-.912-1.928-2.033zm12.065.135c-.07-1.106.724-2.093 1.787-2.167 1.063-.075 1.985.777 2.056 1.883.028.553-.128 1.076-.468 1.48-.34.418-.808.657-1.319.702h-.141c-1.007 0-1.844-.837-1.915-1.898z" clip-path="url(&quot;#bqt4a&quot;)"/></g></g></svg>